<svg width="32" height="32" viewBox="0 0 32 32" fill="none" xmlns="http://www.w3.org/2000/svg">
  <path d="M26.8571 0H17.7143V11.4286H29.1429V2.28571C29.1429 1.02321 28.1196 0 26.8571 0Z" fill="black"/>
  <path d="M14.2857 0H5.14286C3.88036 0 2.85714 1.02321 2.85714 2.28571V11.4286H14.2857V0Z" fill="black"/>
  <path d="M29.1429 14.8571H17.7143V26.2857H26.8571C28.1196 26.2857 29.1429 25.2625 29.1429 24V14.8571Z" fill="black"/>
  <path d="M14.2857 14.8571H2.85714V24C2.85714 25.2625 3.88036 26.2857 5.14286 26.2857H14.2857V14.8571Z" fill="black"/>
  <path d="M29.1429 29.7143H2.85714C1.59464 29.7143 0.571429 30.7375 0.571429 32H31.4286C31.4286 30.7375 30.4054 29.7143 29.1429 29.7143Z" fill="black"/>
</svg> 