<svg width="211" height="36" viewBox="0 0 211 36" fill="none" xmlns="http://www.w3.org/2000/svg">
<path d="M6.74898 0.598145H2.71986e-05V10.3442H6.74898V0.598145Z" fill="#F4652F"/>
<path d="M2.71986e-05 35.5981H6.74898V25.8445H0L2.71986e-05 35.5981Z" fill="#F4652F"/>
<path d="M28.4281 15.1836C32.0977 16.219 34.7734 19.5937 34.7734 23.6203C34.7734 28.4906 30.8363 32.4021 26.02 32.4021H17.7697V35.5981H11.0207V25.8445H24.7586C25.9818 25.8445 26.9756 24.8474 26.9756 23.6203C26.9756 22.3931 25.9818 21.3961 24.7586 21.3961H0V14.8001H18.7956C20.0188 14.8001 21.0126 13.803 21.0126 12.5759C21.0126 11.3487 20.0188 10.3516 18.7956 10.3516L17.7697 10.3442H11.0207V0.598145H17.7697V3.79403H20.057C24.8733 3.79403 28.8104 7.74394 28.8104 12.5759C28.8104 13.4962 28.6575 14.3783 28.4281 15.1836Z" fill="#F4652F"/>
<path d="M147.818 18.0606C147.818 10.3892 153.997 4.17019 161.655 4.17019H179.082V10.4265H162.95C159.88 10.4265 157.253 12.2512 156.069 14.8952H172.691V21.226H155.366V31.951H147.818V18.0606Z" fill="#2A2E30"/>
<path d="M194.177 25.6952H210.309V31.9515L192.919 32.0259C185.261 32.0259 179.082 25.8069 179.082 18.0983C179.082 10.4269 185.261 4.2079 192.882 4.2079H210.309V10.5759H196.323C192.837 10.5759 190.677 11.367 189.256 12.3262C188.434 13.0224 187.772 13.8993 187.318 14.8944H203.917V21.2159L187.318 21.2666C188.511 23.8721 191.127 25.6952 194.177 25.6952Z" fill="#2A2E30"/>
<path d="M47.7369 4.2079H79.9256V10.5759H67.6051V31.9887H60.0574V10.5759H47.7369V4.2079Z" fill="#2A2E30"/>
<path d="M104.496 14.8952C109.157 14.8952 112.968 18.6937 112.968 23.4231C112.968 28.1526 109.157 31.9882 104.459 31.9882H80.8843V25.583H103.275C104.459 25.583 105.421 24.6148 105.421 23.4231C105.421 22.2314 104.459 21.2632 103.275 21.2632H89.505C84.8061 21.2632 81.0323 17.4275 81.0323 12.7353C81.0323 8.00588 84.8061 4.17019 89.505 4.17019H108.627V10.5382H90.7259C89.542 10.5382 88.58 11.5064 88.58 12.6981C88.58 13.8898 89.542 14.858 90.7259 14.858H102.017V14.8952H104.496Z" fill="#2A2E30"/>
<path d="M45.8195 31.9887H38.3088V4.2079H45.8195V31.9887Z" fill="#2A2E30"/>
<path d="M144.942 10.5759V32.0259H137.261V21.205V14.8721V10.5759H144.942Z" fill="#2A2E30"/>
<path d="M122.268 11.3207C124.303 6.96363 128.632 4.2079 133.405 4.2079H144.942V10.5759H137.261H134.552C132.073 10.5759 129.816 12.0282 128.78 14.2626L128.497 14.8721L125.558 21.205L123.526 25.5835L120.694 32.0259H112.649L122.268 11.3207Z" fill="#2A2E30"/>
<path d="M128.497 14.8721H137.261V21.205H125.558L128.497 14.8721Z" fill="#2A2E30"/>
</svg>
