<svg width="32" height="32" viewBox="0 0 32 32" fill="none" xmlns="http://www.w3.org/2000/svg">
  <path d="M27.5045 4L17.8169 11.2619L19.5743 7.37099L27.5045 4Z" fill="#E17726"/>
  <path d="M4.49548 4L14.1046 11.3245L12.4257 7.37099L4.49548 4Z" fill="#E27625"/>
  <path d="M23.9625 21.6034L21.2957 25.7389L26.9502 27.3202L28.5314 21.6973L23.9625 21.6034Z" fill="#E27625"/>
  <path d="M3.48425 21.6973L5.04978 27.3202L10.7043 25.7389L8.03751 21.6034L3.48425 21.6973Z" fill="#E27625"/>
  <path d="M10.4227 14.7305L8.91284 17.1712L14.5048 17.4528L14.3171 11.4183L10.4227 14.7305Z" fill="#E27625"/>
  <path d="M21.5773 14.7305L17.6204 11.3557L17.4952 17.4528L23.0872 17.1712L21.5773 14.7305Z" fill="#E27625"/>
  <path d="M10.7043 25.7389L14.1671 24.0638L11.1858 21.7482L10.7043 25.7389Z" fill="#E27625"/>
  <path d="M17.8329 24.0638L21.2957 25.7389L20.8142 21.7482L17.8329 24.0638Z" fill="#E27625"/>
  <path d="M21.2957 25.7389L17.8329 24.0638L18.1145 26.3794L18.0832 27.2576L21.2957 25.7389Z" fill="#D5BFB2"/>
  <path d="M10.7043 25.7389L13.9168 27.2576L13.9011 26.3794L14.1671 24.0638L10.7043 25.7389Z" fill="#D5BFB2"/>
  <path d="M13.9793 20.0847L11.1233 19.2065L13.1359 18.2345L13.9793 20.0847Z" fill="#233447"/>
  <path d="M18.0207 20.0847L18.8641 18.2345L20.8924 19.2065L18.0207 20.0847Z" fill="#233447"/>
  <path d="M10.7043 25.7389L11.2171 21.6034L8.03751 21.6973L10.7043 25.7389Z" fill="#CC6228"/>
  <path d="M20.7829 21.6034L21.2957 25.7389L23.9625 21.6973L20.7829 21.6034Z" fill="#CC6228"/>
  <path d="M23.0872 17.1712L17.4952 17.4528L18.0207 20.0847L18.8641 18.2345L20.8924 19.2065L23.0872 17.1712Z" fill="#CC6228"/>
  <path d="M11.1233 19.2065L13.1359 18.2345L13.9793 20.0847L14.5048 17.4528L8.91284 17.1712L11.1233 19.2065Z" fill="#CC6228"/>
  <path d="M8.91284 17.1712L11.1858 21.7482L11.1233 19.2065L8.91284 17.1712Z" fill="#E27525"/>
  <path d="M20.8924 19.2065L20.8142 21.7482L23.0872 17.1712L20.8924 19.2065Z" fill="#E27525"/>
  <path d="M14.5048 17.4528L13.9793 20.0847L14.6456 23.3969L14.7864 18.7473L14.5048 17.4528Z" fill="#E27525"/>
  <path d="M17.4952 17.4528L17.2292 18.7317L17.3544 23.3969L18.0207 20.0847L17.4952 17.4528Z" fill="#E27525"/>
  <path d="M18.0207 20.0847L17.3544 23.3969L17.8329 24.0638L20.8142 21.7482L20.8924 19.2065L18.0207 20.0847Z" fill="#F5841F"/>
  <path d="M11.1233 19.2065L11.1858 21.7482L14.1671 24.0638L14.6456 23.3969L13.9793 20.0847L11.1233 19.2065Z" fill="#F5841F"/>
  <path d="M18.0832 27.2576L18.1145 26.3794L17.8642 26.1604H14.1358L13.9011 26.3794L13.9168 27.2576L10.7043 25.7389L11.8141 26.6484L14.0889 28.2297H17.8954L20.1859 26.6484L21.2957 25.7389L18.0832 27.2576Z" fill="#C0AC9D"/>
  <path d="M17.8329 24.0638L17.3544 23.3969H14.6456L14.1671 24.0638L13.9011 26.3794L14.1358 26.1604H17.8642L18.1145 26.3794L17.8329 24.0638Z" fill="#161616"/>
  <path d="M28.0186 12.0852L28.8777 8.18481L27.5045 4L17.8329 11.0429L21.5773 14.7305L26.7625 16.3118L27.9192 14.9386L27.3937 14.5571L28.1902 13.7945L27.5514 13.2846L28.3479 12.6466L28.0186 12.0852Z" fill="#763E1A"/>
  <path d="M3.12231 8.18481L3.98137 12.0852L3.63647 12.6466L4.44864 13.2846L3.80979 13.7945L4.60635 14.5571L4.08084 14.9386L5.23751 16.3118L10.4227 14.7305L14.1671 11.0429L4.49548 4L3.12231 8.18481Z" fill="#763E1A"/>
  <path d="M26.7625 16.3118L21.5773 14.7305L23.0872 17.1712L20.8142 21.7482L23.9625 21.6973H28.5314L26.7625 16.3118Z" fill="#F5841F"/>
  <path d="M10.4227 14.7305L5.23751 16.3118L3.48425 21.6973H8.03751L11.1858 21.7482L8.91284 17.1712L10.4227 14.7305Z" fill="#F5841F"/>
  <path d="M17.4952 17.4528L17.8329 11.0429L19.5743 7.37099H12.4257L14.1671 11.0429L14.5048 17.4528L14.6299 18.7629L14.6456 23.3969H17.3544L17.3701 18.7629L17.4952 17.4528Z" fill="#F5841F"/>
</svg> 