<svg width="32" height="32" viewBox="0 0 32 32" fill="none" xmlns="http://www.w3.org/2000/svg">
  <path d="M16 0C10.3125 0 5.71429 4.59821 5.71429 10.2857V14.2857H4C2.89286 14.2857 2 15.1786 2 16.2857V29.7143C2 30.8214 2.89286 31.7143 4 31.7143H28C29.1071 31.7143 30 30.8214 30 29.7143V16.2857C30 15.1786 29.1071 14.2857 28 14.2857H26.2857V10.2857C26.2857 4.59821 21.6875 0 16 0ZM16 3.42857C19.8214 3.42857 22.8571 6.46429 22.8571 10.2857V14.2857H9.14286V10.2857C9.14286 6.46429 12.1786 3.42857 16 3.42857Z" fill="black"/>
  <path d="M16 19.4286C17.4732 19.4286 18.8571 20.0893 19.7857 21.1964C20.7143 22.3036 21.1429 23.7768 20.9464 25.25C20.75 26.5268 20.0893 27.6696 19.0714 28.4196C18.0536 29.1696 16.8214 29.4554 15.5446 29.2589C14.2679 29.0625 13.125 28.4018 12.375 27.3839C11.625 26.3661 11.3393 25.1339 11.5357 23.8571C11.7321 22.5804 12.3929 21.4375 13.4107 20.6875C14.4286 19.9375 15.6607 19.4286 16 19.4286Z" fill="black"/>
</svg> 