<svg width="100%" height="100%" viewBox="0 0 129 38" fill="none" xmlns="http://www.w3.org/2000/svg">
<path d="M115.807 24.6392C115.807 26.1972 116.728 27.3828 118.578 27.3828H121.694C123.543 27.3828 124.464 26.1972 124.464 24.6392V14.2728C124.464 12.7148 123.543 11.5292 121.694 11.5292H118.578C116.728 11.5292 115.807 12.7148 115.807 14.2728V24.6392ZM111.425 14.6072C111.425 10.7084 114.165 7.6608 118.44 7.6608H121.832C126.114 7.6608 128.847 10.7084 128.847 14.6072V24.5708C128.847 28.4696 126.107 31.5172 121.832 31.5172H118.44C114.157 31.5172 111.425 28.4696 111.425 24.5708V14.6072ZM98.4847 11.6584V31.5248H102.867V11.6584H109.099V7.6608H92.2527V11.6584H98.4847ZM85.8901 24.6772C85.8901 26.2352 84.9001 27.4208 83.0811 27.4208H77.7777V21.052H83.0811C84.8924 21.052 85.8901 22.2072 85.8901 23.7652V24.6772ZM83.012 11.4912C84.6238 11.4912 85.3759 12.5096 85.3759 13.9004V14.8124C85.3759 16.2032 84.6238 17.252 83.012 17.252H77.7777V11.4912H83.012ZM86.4734 18.9848C88.8373 18.3084 89.8274 16.34 89.8274 14.2728V13.6952C89.8274 10.1004 87.3254 7.6608 83.2193 7.6608H73.3954V31.5248H83.1502C87.4942 31.5248 90.3416 29.0472 90.3416 25.3232V24.4112C90.3416 22.04 89.2825 20.0716 86.4734 19.4256V18.9848ZM62.85 19.456L68.4297 12.4716C68.8441 11.932 69.013 11.4532 69.013 10.7768V7.6608H64.5615V9.8268C64.5615 10.2372 64.4617 10.5412 64.2161 10.8756L60.0717 16.4996L55.9272 10.8376C55.6893 10.4956 55.5819 10.1916 55.5819 9.7888V7.6532H51.1304V10.7692C51.1304 11.4456 51.2992 11.9244 51.7137 12.464L57.2243 19.4484L51.5448 26.7368C51.1304 27.246 50.9615 27.7552 50.9615 28.4316V31.5172H55.413V29.3132C55.413 28.9028 55.5128 28.5988 55.7584 28.2644L60.0717 22.6024L64.385 28.2264C64.6229 28.5684 64.7304 28.8724 64.7304 29.2752V31.5096H69.1818V28.424C69.1818 27.7476 69.013 27.2688 68.5985 26.7292L62.85 19.456ZM18.6885 28.4392L24.8514 24.9128V21.3864H12.5255V24.9128L18.6885 28.4392ZM18.6885 33.2196L8.35033 27.284V21.3864H4.17516V29.6932L18.6885 38L33.2018 29.6932V21.3864H29.0266V27.284L18.6885 33.2196ZM18.6885 14.3412L24.8514 17.8676V21.394H29.0266V15.4584L18.6885 9.5608L8.35033 15.4584V21.394H12.5255V17.8676L18.6885 14.3412ZM0 21.3864H4.17516V13.0872L18.6885 4.7804L33.2018 13.0872V21.394H37.3769V10.7084L18.6885 0L0 10.7084V21.3864Z" fill="currentColor"></path>
</svg>